<mxfile host="app.diagrams.net" modified="2024-01-11T08:22:57.292Z" agent="Mozilla/5.0 (X11; Ubuntu; Linux x86_64; rv:120.0) Gecko/20100101 Firefox/120.0" etag="g1LMJX8jkHzfjd4ueahT" version="22.1.18" type="github">
  <diagram name="Page-1" id="hzXl4IbYYMlKKBp18_JX">
    <mxGraphModel dx="2074" dy="1153" grid="1" gridSize="10" guides="1" tooltips="1" connect="1" arrows="1" fold="1" page="1" pageScale="1" pageWidth="1169" pageHeight="827" math="0" shadow="0">
      <root>
        <mxCell id="0" />
        <mxCell id="1" parent="0" />
        <mxCell id="lOXGbhJpx5sgzcixRXs6-13" value="&lt;font style=&quot;font-size: 34px;&quot;&gt;9 Months&lt;br&gt;&lt;/font&gt;" style="rounded=0;whiteSpace=wrap;html=1;fillColor=none;" vertex="1" parent="1">
          <mxGeometry x="120" y="40" width="120" height="720" as="geometry" />
        </mxCell>
        <mxCell id="lOXGbhJpx5sgzcixRXs6-14" value="" style="shape=table;startSize=0;container=1;collapsible=0;childLayout=tableLayout;fontSize=22;fillColor=none;" vertex="1" parent="1">
          <mxGeometry x="240" y="40" width="520" height="720" as="geometry" />
        </mxCell>
        <mxCell id="lOXGbhJpx5sgzcixRXs6-15" value="" style="shape=tableRow;horizontal=0;startSize=0;swimlaneHead=0;swimlaneBody=0;strokeColor=inherit;top=0;left=0;bottom=0;right=0;collapsible=0;dropTarget=0;fillColor=none;points=[[0,0.5],[1,0.5]];portConstraint=eastwest;fontSize=16;" vertex="1" parent="lOXGbhJpx5sgzcixRXs6-14">
          <mxGeometry width="520" height="320" as="geometry" />
        </mxCell>
        <mxCell id="lOXGbhJpx5sgzcixRXs6-16" value="4" style="shape=partialRectangle;html=1;whiteSpace=wrap;connectable=0;strokeColor=inherit;overflow=hidden;fillColor=none;top=0;left=0;bottom=0;right=0;pointerEvents=1;fontSize=25;" vertex="1" parent="lOXGbhJpx5sgzcixRXs6-15">
          <mxGeometry width="120" height="320" as="geometry">
            <mxRectangle width="120" height="320" as="alternateBounds" />
          </mxGeometry>
        </mxCell>
        <mxCell id="lOXGbhJpx5sgzcixRXs6-17" value="360-degree bird&#39;s eye view" style="shape=partialRectangle;html=1;whiteSpace=wrap;connectable=0;strokeColor=inherit;overflow=hidden;fillColor=none;top=0;left=0;bottom=0;right=0;pointerEvents=1;fontSize=25;" vertex="1" parent="lOXGbhJpx5sgzcixRXs6-15">
          <mxGeometry x="120" width="400" height="320" as="geometry">
            <mxRectangle width="400" height="320" as="alternateBounds" />
          </mxGeometry>
        </mxCell>
        <mxCell id="lOXGbhJpx5sgzcixRXs6-19" value="" style="shape=tableRow;horizontal=0;startSize=0;swimlaneHead=0;swimlaneBody=0;strokeColor=inherit;top=0;left=0;bottom=0;right=0;collapsible=0;dropTarget=0;fillColor=none;points=[[0,0.5],[1,0.5]];portConstraint=eastwest;fontSize=16;" vertex="1" parent="lOXGbhJpx5sgzcixRXs6-14">
          <mxGeometry y="320" width="520" height="80" as="geometry" />
        </mxCell>
        <mxCell id="lOXGbhJpx5sgzcixRXs6-20" value="1" style="shape=partialRectangle;html=1;whiteSpace=wrap;connectable=0;strokeColor=inherit;overflow=hidden;fillColor=none;top=0;left=0;bottom=0;right=0;pointerEvents=1;fontSize=25;" vertex="1" parent="lOXGbhJpx5sgzcixRXs6-19">
          <mxGeometry width="120" height="80" as="geometry">
            <mxRectangle width="120" height="80" as="alternateBounds" />
          </mxGeometry>
        </mxCell>
        <mxCell id="lOXGbhJpx5sgzcixRXs6-21" value="Obstacle detection" style="shape=partialRectangle;html=1;whiteSpace=wrap;connectable=0;strokeColor=inherit;overflow=hidden;fillColor=none;top=0;left=0;bottom=0;right=0;pointerEvents=1;fontSize=25;" vertex="1" parent="lOXGbhJpx5sgzcixRXs6-19">
          <mxGeometry x="120" width="400" height="80" as="geometry">
            <mxRectangle width="400" height="80" as="alternateBounds" />
          </mxGeometry>
        </mxCell>
        <mxCell id="lOXGbhJpx5sgzcixRXs6-23" value="" style="shape=tableRow;horizontal=0;startSize=0;swimlaneHead=0;swimlaneBody=0;strokeColor=inherit;top=0;left=0;bottom=0;right=0;collapsible=0;dropTarget=0;fillColor=none;points=[[0,0.5],[1,0.5]];portConstraint=eastwest;fontSize=16;" vertex="1" parent="lOXGbhJpx5sgzcixRXs6-14">
          <mxGeometry y="400" width="520" height="80" as="geometry" />
        </mxCell>
        <mxCell id="lOXGbhJpx5sgzcixRXs6-24" value="1" style="shape=partialRectangle;html=1;whiteSpace=wrap;connectable=0;strokeColor=inherit;overflow=hidden;fillColor=none;top=0;left=0;bottom=0;right=0;pointerEvents=1;fontSize=25;" vertex="1" parent="lOXGbhJpx5sgzcixRXs6-23">
          <mxGeometry width="120" height="80" as="geometry">
            <mxRectangle width="120" height="80" as="alternateBounds" />
          </mxGeometry>
        </mxCell>
        <mxCell id="lOXGbhJpx5sgzcixRXs6-25" value="Object identification" style="shape=partialRectangle;html=1;whiteSpace=wrap;connectable=0;strokeColor=inherit;overflow=hidden;fillColor=none;top=0;left=0;bottom=0;right=0;pointerEvents=1;fontSize=25;" vertex="1" parent="lOXGbhJpx5sgzcixRXs6-23">
          <mxGeometry x="120" width="400" height="80" as="geometry">
            <mxRectangle width="400" height="80" as="alternateBounds" />
          </mxGeometry>
        </mxCell>
        <mxCell id="lOXGbhJpx5sgzcixRXs6-27" style="shape=tableRow;horizontal=0;startSize=0;swimlaneHead=0;swimlaneBody=0;strokeColor=inherit;top=0;left=0;bottom=0;right=0;collapsible=0;dropTarget=0;fillColor=none;points=[[0,0.5],[1,0.5]];portConstraint=eastwest;fontSize=16;" vertex="1" parent="lOXGbhJpx5sgzcixRXs6-14">
          <mxGeometry y="480" width="520" height="80" as="geometry" />
        </mxCell>
        <mxCell id="lOXGbhJpx5sgzcixRXs6-28" value="1" style="shape=partialRectangle;html=1;whiteSpace=wrap;connectable=0;strokeColor=inherit;overflow=hidden;fillColor=none;top=0;left=0;bottom=0;right=0;pointerEvents=1;fontSize=25;" vertex="1" parent="lOXGbhJpx5sgzcixRXs6-27">
          <mxGeometry width="120" height="80" as="geometry">
            <mxRectangle width="120" height="80" as="alternateBounds" />
          </mxGeometry>
        </mxCell>
        <mxCell id="lOXGbhJpx5sgzcixRXs6-29" value="Documentation and project managment" style="shape=partialRectangle;html=1;whiteSpace=wrap;connectable=0;strokeColor=inherit;overflow=hidden;fillColor=none;top=0;left=0;bottom=0;right=0;pointerEvents=1;fontSize=25;" vertex="1" parent="lOXGbhJpx5sgzcixRXs6-27">
          <mxGeometry x="120" width="400" height="80" as="geometry">
            <mxRectangle width="400" height="80" as="alternateBounds" />
          </mxGeometry>
        </mxCell>
        <mxCell id="lOXGbhJpx5sgzcixRXs6-33" style="shape=tableRow;horizontal=0;startSize=0;swimlaneHead=0;swimlaneBody=0;strokeColor=inherit;top=0;left=0;bottom=0;right=0;collapsible=0;dropTarget=0;fillColor=none;points=[[0,0.5],[1,0.5]];portConstraint=eastwest;fontSize=16;" vertex="1" parent="lOXGbhJpx5sgzcixRXs6-14">
          <mxGeometry y="560" width="520" height="80" as="geometry" />
        </mxCell>
        <mxCell id="lOXGbhJpx5sgzcixRXs6-34" value="1" style="shape=partialRectangle;html=1;whiteSpace=wrap;connectable=0;strokeColor=inherit;overflow=hidden;fillColor=none;top=0;left=0;bottom=0;right=0;pointerEvents=1;fontSize=25;" vertex="1" parent="lOXGbhJpx5sgzcixRXs6-33">
          <mxGeometry width="120" height="80" as="geometry">
            <mxRectangle width="120" height="80" as="alternateBounds" />
          </mxGeometry>
        </mxCell>
        <mxCell id="lOXGbhJpx5sgzcixRXs6-35" value="Testing and bugfixes" style="shape=partialRectangle;html=1;whiteSpace=wrap;connectable=0;strokeColor=inherit;overflow=hidden;fillColor=none;top=0;left=0;bottom=0;right=0;pointerEvents=1;fontSize=25;" vertex="1" parent="lOXGbhJpx5sgzcixRXs6-33">
          <mxGeometry x="120" width="400" height="80" as="geometry">
            <mxRectangle width="400" height="80" as="alternateBounds" />
          </mxGeometry>
        </mxCell>
        <mxCell id="lOXGbhJpx5sgzcixRXs6-30" style="shape=tableRow;horizontal=0;startSize=0;swimlaneHead=0;swimlaneBody=0;strokeColor=inherit;top=0;left=0;bottom=0;right=0;collapsible=0;dropTarget=0;fillColor=none;points=[[0,0.5],[1,0.5]];portConstraint=eastwest;fontSize=16;" vertex="1" parent="lOXGbhJpx5sgzcixRXs6-14">
          <mxGeometry y="640" width="520" height="80" as="geometry" />
        </mxCell>
        <mxCell id="lOXGbhJpx5sgzcixRXs6-31" value="1" style="shape=partialRectangle;html=1;whiteSpace=wrap;connectable=0;strokeColor=inherit;overflow=hidden;fillColor=none;top=0;left=0;bottom=0;right=0;pointerEvents=1;fontSize=25;" vertex="1" parent="lOXGbhJpx5sgzcixRXs6-30">
          <mxGeometry width="120" height="80" as="geometry">
            <mxRectangle width="120" height="80" as="alternateBounds" />
          </mxGeometry>
        </mxCell>
        <mxCell id="lOXGbhJpx5sgzcixRXs6-32" value="Delivery and integration" style="shape=partialRectangle;html=1;whiteSpace=wrap;connectable=0;strokeColor=inherit;overflow=hidden;fillColor=none;top=0;left=0;bottom=0;right=0;pointerEvents=1;fontSize=25;" vertex="1" parent="lOXGbhJpx5sgzcixRXs6-30">
          <mxGeometry x="120" width="400" height="80" as="geometry">
            <mxRectangle width="400" height="80" as="alternateBounds" />
          </mxGeometry>
        </mxCell>
      </root>
    </mxGraphModel>
  </diagram>
</mxfile>
